<?xml version="1.0" encoding="UTF-8"?>
<!DOCTYPE svg PUBLIC "-//W3C//DTD SVG 1.1//EN" "http://www.w3.org/Graphics/SVG/1.1/DTD/svg11.dtd">
<!-- Creator: CorelDRAW X7 -->
<svg xmlns="http://www.w3.org/2000/svg" xml:space="preserve" width="146mm" height="83mm" version="1.1" style="shape-rendering:geometricPrecision; text-rendering:geometricPrecision; image-rendering:optimizeQuality; fill-rule:evenodd; clip-rule:evenodd"
viewBox="0 0 14600 8300"
 xmlns:xlink="http://www.w3.org/1999/xlink">
 <defs>
  <style type="text/css">
   <![CDATA[
    .fil0 {fill:yellow}
    .fil1 {fill:black;fill-rule:nonzero}
   ]]>
  </style>
 </defs>
 <g id="Layer_x0020_1">
  <metadata id="CorelCorpID_0Corel-Layer"/>
  <g id="_544524496">
   <polygon class="fil0" points="-1743,3343 6464,-1282 6889,-1288 -1052,3332 "/>
   <polygon class="fil0" points="-1052,3332 6889,-1288 7024,1459 -738,7688 "/>
   <polygon class="fil0" points="-738,7688 7024,1459 8675,1433 1930,7634 "/>
   <polygon class="fil0" points="1649,3286 8553,-1310 8977,-1315 2337,3274 "/>
   <polygon class="fil0" points="2337,3274 8977,-1315 9096,1427 2609,7620 "/>
   <polygon class="fil0" points="2609,7620 9096,1427 9384,1422 3073,7610 "/>
   <polygon class="fil0" points="3073,7610 9384,1422 9436,2636 3190,9521 "/>
   <polygon class="fil0" points="3636,3252 9778,-1326 10202,-1332 4321,3241 "/>
   <polygon class="fil0" points="4321,3241 10202,-1332 10253,-48 4437,5279 "/>
   <polygon class="fil0" points="4470,5855 10268,316 10326,1769 4601,8148 "/>
   <polygon class="fil0" points="4437,5279 10253,-48 11893,-71 7085,5230 "/>
   <polygon class="fil0" points="7666,3184 12269,-1359 12375,1736 7899,8079 "/>
   <polygon class="fil0" points="6984,3195 11847,-1354 12269,-1359 7666,3184 "/>
   <polygon class="fil0" points="9766,4172 13563,-731 13552,-717 13542,-703 13532,-688 13522,-673 13512,-658 13503,-642 13494,-627 13485,-611 13477,-595 13469,-579 13461,-562 13453,-546 13446,-529 13439,-512 13433,-494 13426,-477 13420,-459 13415,-441 13409,-423 13404,-405 13398,-386 13394,-368 13389,-350 13384,-332 13380,-313 13376,-295 13372,-276 13368,-258 13364,-239 13361,-221 13358,-202 13355,-184 13352,-165 13349,-147 13347,-128 13345,-109 13343,-91 13341,-72 13339,-53 13338,-34 13336,-15 13335,3 13334,22 13334,41 13333,60 13333,79 13333,98 13333,117 13333,136 13334,155 13335,180 13336,204 13337,228 13339,252 13341,276 13343,300 13345,323 13347,346 13350,369 13353,392 13356,414 13359,437 13363,459 13366,481 13370,502 13375,524 13379,545 13384,566 13389,587 13394,608 13399,628 13405,649 13410,669 13416,689 13423,708 13429,728 13436,747 13443,766 13450,785 13457,804 13464,822 13472,841 13480,859 13488,877 13497,894 13506,911 13515,928 13524,945 13533,961 13543,977 13553,993 13563,1008 13573,1023 13584,1038 13595,1053 13606,1067 13618,1081 13629,1094 13641,1108 13653,1121 13666,1134 13678,1146 13691,1158 13704,1170 13718,1182 13731,1193 13745,1204 13759,1215 13773,1225 13788,1235 13803,1245 13818,1255 13833,1264 13849,1273 13864,1281 13880,1290 13896,1298 13912,1306 13928,1313 13944,1321 13960,1328 13976,1334 13992,1341 14009,1347 14025,1352 14041,1358 14058,1363 14074,1368 14091,1373 14108,1377 14125,1381 14141,1385 14158,1389 14175,1392 14192,1395 14210,1398 14227,1400 14244,1402 14262,1404 14279,1406 14296,1407 14314,1408 14332,1409 14349,1409 14367,1409 14385,1409 14407,1408 14428,1408 14449,1406 14470,1405 14491,1403 14512,1400 14532,1397 14552,1394 14572,1390 14592,1387 14611,1382 14631,1377 14650,1372 14668,1367 14687,1361 14705,1355 14723,1348 14741,1341 14759,1334 14777,1326 14794,1318 14811,1309 14828,1300 14844,1291 14861,1282 14877,1271 14893,1261 14908,1250 14924,1239 14939,1228 14954,1216 14969,1203 14984,1191 14998,1177 15012,1164 15026,1150 15039,1136 15052,1121 15065,1106 15077,1091 15089,1075 15101,1059 15112,1043 15124,1026 15134,1009 15145,992 15155,974 15165,955 15175,937 15184,918 12397,6766 12383,6796 12368,6826 12352,6855 12336,6883 12319,6911 12302,6938 12284,6964 12266,6990 12247,7016 12228,7040 12208,7065 12188,7088 12168,7111 12146,7134 12125,7156 12102,7177 12080,7198 12056,7218 12033,7237 12009,7256 11984,7275 11960,7292 11934,7309 11909,7326 11883,7342 11857,7357 11831,7372 11804,7386 11776,7400 11749,7413 11721,7425 11693,7437 11664,7448 11635,7459 11606,7468 11576,7478 11546,7487 11515,7495 11485,7502 11453,7509 11422,7516 11390,7522 11358,7527 11325,7531 11292,7535 11259,7539 11225,7542 11191,7544 11157,7546 11122,7547 11093,7547 11064,7547 11036,7546 11008,7545 10979,7544 10951,7542 10923,7540 10895,7537 10868,7534 10840,7530 10812,7526 10785,7522 10758,7517 10730,7511 10703,7505 10676,7499 10649,7492 10622,7485 10596,7477 10569,7469 10543,7461 10516,7452 10490,7442 10464,7432 10438,7422 10412,7411 10386,7400 10360,7388 10334,7376 10309,7363 10283,7350 10258,7337 10233,7323 10208,7308 10184,7293 10160,7278 10136,7262 10113,7246 10091,7229 10068,7212 10046,7194 10024,7176 10003,7158 9982,7139 9962,7119 9942,7099 9922,7079 9903,7058 9884,7036 9865,7014 9847,6992 9829,6969 9812,6946 9795,6922 9778,6898 9762,6873 9746,6848 9731,6823 9716,6796 9701,6770 9687,6743 9673,6715 9659,6687 9646,6659 9633,6630 9621,6601 9609,6572 9597,6542 9586,6512 9575,6481 9564,6451 9554,6420 9544,6388 9534,6357 9525,6325 9516,6292 9507,6260 9499,6227 9491,6193 9484,6160 9477,6126 9470,6091 9463,6057 9457,6022 9452,5987 9446,5951 9441,5915 9436,5879 9432,5842 9428,5806 9425,5768 9421,5731 9418,5693 9416,5655 9414,5616 9412,5578 9411,5548 9410,5517 9409,5487 9409,5457 9409,5427 9410,5397 9410,5367 9411,5337 9413,5308 9414,5278 9416,5248 9419,5218 9421,5189 9424,5159 9428,5129 9431,5100 9435,5070 9439,5041 9444,5012 9449,4982 9454,4953 9459,4924 9465,4894 9471,4865 9478,4836 9484,4807 9491,4778 9499,4749 9507,4720 9515,4691 9523,4662 9531,4633 9540,4605 9550,4576 9560,4549 9570,4521 9581,4494 9592,4467 9604,4441 9616,4415 9629,4389 9642,4363 9656,4338 9670,4314 9685,4289 9700,4265 9716,4241 9732,4218 9749,4195 "/>
   <polygon class="fil0" points="13224,6434 15700,710 15693,741 15685,772 15676,802 15668,832 15658,861 15649,890 15639,919 15628,947 15617,974 15606,1001 13075,6894 13093,6852 13110,6808 13127,6764 13143,6719 13158,6674 13173,6627 13187,6580 13200,6532 13212,6484 "/>
   <polygon class="fil0" points="9232,3826 13234,-951 13250,-970 13265,-987 13281,-1005 13298,-1022 13315,-1039 13332,-1056 13349,-1072 13367,-1088 13385,-1104 13403,-1119 13422,-1134 13441,-1148 13460,-1162 13480,-1176 13500,-1190 13520,-1203 13541,-1216 13562,-1229 13583,-1241 13605,-1253 13626,-1264 13648,-1275 13670,-1286 13692,-1297 13714,-1307 13737,-1316 13759,-1326 13782,-1335 13805,-1343 13828,-1351 13851,-1359 13874,-1367 13898,-1374 13921,-1380 13945,-1387 13969,-1393 13993,-1398 14017,-1404 14042,-1409 14066,-1413 14091,-1417 14115,-1421 14140,-1425 14165,-1428 14191,-1430 14216,-1433 14241,-1435 14267,-1436 14293,-1438 14319,-1438 14345,-1439 14374,-1439 14404,-1439 14433,-1438 14461,-1437 14490,-1435 14518,-1433 14546,-1430 14573,-1427 14601,-1424 14628,-1420 14654,-1415 14681,-1410 14707,-1405 14733,-1399 14758,-1392 14784,-1385 14809,-1378 14833,-1370 14858,-1362 14882,-1353 14906,-1344 14929,-1334 14953,-1324 14976,-1314 14998,-1303 15021,-1291 15043,-1279 15065,-1266 15086,-1254 15107,-1240 15128,-1226 15149,-1212 15170,-1197 15190,-1182 15209,-1166 15229,-1150 15247,-1134 15266,-1117 15284,-1100 15302,-1083 15319,-1065 15336,-1047 15353,-1028 15369,-1009 15385,-990 15401,-970 15416,-950 15431,-930 15445,-909 15459,-888 15473,-866 15486,-844 15499,-822 15511,-799 15524,-776 15535,-753 15547,-729 15558,-705 15568,-680 15579,-655 15589,-630 15598,-604 15607,-578 15616,-551 13075,4443 13060,4401 13045,4360 13030,4319 13013,4279 12996,4240 12979,4201 12961,4163 12942,4125 12923,4088 12903,4051 12883,4016 12862,3980 12840,3946 12818,3911 12795,3878 12772,3845 12748,3813 12723,3781 12698,3750 12672,3719 12646,3689 12619,3660 12591,3631 12563,3603 12534,3576 12504,3549 12474,3522 12444,3497 12412,3472 12381,3447 12348,3423 12315,3400 12282,3377 12248,3355 12213,3334 12178,3314 12143,3294 12107,3275 12071,3257 12034,3239 11997,3223 11959,3207 11921,3191 11883,3177 11844,3163 11804,3150 11764,3138 11724,3127 11683,3116 11642,3106 11600,3097 11558,3088 11515,3080 11472,3073 11428,3067 11384,3061 11340,3057 11295,3053 11249,3049 11203,3047 11157,3045 11110,3044 11063,3044 11015,3044 10973,3045 10932,3047 10890,3049 10849,3052 10808,3055 10767,3059 10726,3063 10686,3068 10646,3074 10606,3080 10566,3087 10527,3094 10488,3102 10449,3111 10410,3120 10371,3130 10333,3140 10295,3151 10258,3162 10220,3174 10183,3187 10146,3200 10109,3214 10073,3228 10036,3243 10000,3258 9965,3274 9929,3291 9894,3308 9859,3326 9824,3345 9790,3364 9756,3383 9722,3403 9689,3424 9656,3445 9624,3467 9593,3489 9562,3512 9531,3535 9502,3559 9472,3583 9443,3608 9415,3633 9387,3659 9360,3686 9333,3713 9307,3740 9281,3768 9256,3797 "/>
   <polygon class="fil0" points="12549,6285 15281,613 15700,710 13224,6434 "/>
   <polygon class="fil0" points="15691,3626 17247,-1061 17303,1659 15799,7914 "/>
   <polygon class="fil0" points="17345,3020 18277,-1439 18284,-1075 17357,3597 "/>
   <polygon class="fil0" points="13329,3088 15780,-1406 18277,-1439 17345,3020 "/>
  </g>
  <path class="fil1" d="M-1743 3343l691 -11 314 4356 2668 -54 -281 -4348 688 -12 272 4346 464 -10 117 1911 -597 13 -84 -1342 -3887 82 -365 -4931zm5668 4819l-289 -4910 685 -11 116 2038 2648 -49 -101 -2035 682 -11 233 4895 -672 14 -114 -2288 -2643 50 131 2293 -676 14zm8624 -1877l675 149 -12 50 -12 48 -13 48 -14 47 -15 47 -15 45 -16 45 -17 44 -17 44 -18 42 -18 42 -19 42 -20 40 -21 40 -21 39 -22 38 -23 38 -23 37 -24 36 -25 35 -25 35 -26 34 -26 33 -28 33 -28 32 -28 31 -30 30 -30 30 -30 29 -32 28 -32 28 -33 26 -33 27 -34 25 -34 24 -35 24 -35 23 -36 22 -36 21 -37 21 -37 20 -38 19 -38 18 -39 17 -39 17 -40 15 -40 15 -41 14 -41 14 -42 12 -42 12 -43 11 -44 10 -43 10 -45 8 -44 8 -46 7 -46 6 -46 6 -47 4 -47 4 -48 3 -48 2 -49 2 -51 1 -50 0 -49 -1 -49 -1 -48 -2 -48 -2 -47 -3 -46 -4 -46 -4 -46 -5 -45 -6 -44 -6 -44 -7 -43 -7 -43 -8 -42 -9 -41 -9 -41 -10 -41 -11 -39 -11 -40 -12 -38 -13 -38 -13 -38 -14 -37 -14 -36 -15 -36 -16 -36 -16 -34 -17 -35 -18 -33 -18 -33 -19 -33 -19 -32 -21 -32 -20 -31 -21 -31 -22 -30 -22 -30 -23 -29 -24 -29 -24 -29 -24 -28 -25 -27 -26 -28 -26 -26 -27 -27 -28 -25 -28 -26 -28 -25 -29 -24 -30 -24 -30 -24 -31 -23 -32 -22 -32 -23 -32 -21 -34 -22 -33 -20 -35 -21 -35 -20 -35 -19 -36 -19 -37 -19 -37 -18 -38 -18 -38 -17 -38 -16 -38 -17 -38 -15 -39 -15 -39 -15 -39 -14 -39 -13 -39 -14 -40 -12 -40 -12 -40 -12 -40 -11 -40 -10 -41 -10 -40 -9 -41 -9 -41 -9 -42 -8 -41 -7 -42 -7 -42 -6 -42 -6 -42 -6 -43 -4 -42 -5 -43 -4 -43 -3 -44 -3 -43 -2 -44 -2 -47 -1 -47 0 -47 -1 -47 1 -46 1 -46 2 -45 2 -45 4 -45 3 -44 4 -44 5 -44 6 -43 6 -43 7 -42 7 -42 8 -42 8 -42 9 -41 10 -40 11 -41 11 -40 11 -39 12 -40 13 -39 14 -38 14 -38 15 -38 15 -38 16 -37 16 -36 18 -37 17 -36 19 -35 18 -35 20 -34 20 -34 20 -33 21 -33 21 -32 22 -32 23 -31 23 -31 23 -30 25 -29 24 -29 25 -29 26 -28 26 -27 27 -27 27 -27 28 -26 28 -25 29 -25 30 -24 29 -24 31 -23 31 -23 31 -22 32 -22 33 -21 33 -21 34 -20 34 -19 34 -19 35 -19 35 -18 35 -17 36 -17 35 -16 36 -15 37 -15 36 -14 37 -14 37 -13 37 -13 38 -12 37 -11 38 -11 38 -10 39 -10 39 -9 39 -9 39 -8 39 -7 40 -7 40 -6 40 -6 40 -5 41 -4 41 -4 41 -3 41 -3 42 -2 41 -2 42 -1 48 0 47 0 47 1 46 2 46 2 46 4 45 4 44 4 44 6 44 6 43 7 43 8 42 9 42 9 41 10 41 11 40 11 40 12 40 13 39 14 38 14 38 16 38 16 37 16 37 18 36 18 36 19 35 20 35 20 35 21 34 22 33 23 33 23 33 24 31 25 32 25 30 25 30 27 30 27 29 27 28 28 28 29 27 29 26 30 26 31 25 31 25 32 24 32 23 33 23 33 22 35 22 34 21 36 20 35 20 37 19 37 19 38 18 38 17 39 17 39 17 40 15 41 15 41 15 42 -654 163 -13 -33 -12 -32 -13 -32 -13 -31 -14 -31 -13 -30 -15 -30 -14 -29 -15 -28 -15 -28 -15 -27 -15 -27 -16 -26 -16 -25 -17 -25 -17 -25 -17 -24 -17 -23 -18 -23 -17 -22 -19 -21 -18 -21 -19 -21 -19 -20 -19 -19 -20 -18 -20 -19 -20 -17 -21 -17 -21 -16 -21 -16 -21 -15 -22 -15 -22 -14 -22 -14 -23 -13 -23 -13 -23 -13 -24 -11 -24 -12 -24 -11 -25 -10 -25 -10 -25 -9 -26 -9 -26 -9 -26 -8 -27 -7 -26 -7 -28 -6 -27 -6 -28 -6 -28 -5 -29 -5 -29 -4 -29 -3 -29 -3 -30 -3 -30 -2 -31 -2 -31 -1 -31 0 -31 -1 -32 1 -37 1 -36 1 -35 2 -36 2 -34 3 -35 4 -34 4 -34 5 -33 5 -33 5 -32 7 -33 6 -31 7 -32 8 -31 8 -30 9 -30 10 -30 9 -29 11 -29 11 -29 11 -28 12 -28 12 -27 13 -27 14 -27 14 -26 14 -26 16 -25 15 -25 16 -24 17 -25 17 -23 18 -23 18 -23 18 -23 19 -21 19 -22 19 -21 20 -20 20 -20 21 -19 21 -19 21 -19 21 -18 22 -17 22 -17 23 -17 23 -16 23 -16 24 -15 24 -15 25 -14 24 -14 25 -13 26 -13 26 -12 26 -12 26 -11 27 -11 27 -10 28 -10 27 -10 29 -9 28 -8 29 -8 29 -8 29 -8 29 -8 29 -7 29 -6 29 -7 29 -6 29 -6 30 -5 29 -5 29 -5 30 -5 29 -4 29 -4 30 -3 29 -4 30 -3 30 -2 29 -3 30 -2 30 -1 30 -2 29 -1 30 0 30 -1 30 0 30 0 30 1 30 1 31 1 30 2 38 2 39 2 38 3 38 4 37 3 38 4 36 4 37 5 36 5 36 6 36 5 35 6 35 7 34 7 35 7 34 7 33 8 34 8 33 9 32 9 33 9 32 10 31 10 32 10 31 11 30 11 31 11 30 12 30 12 29 12 29 13 29 13 28 14 28 14 28 14 27 15 26 15 27 15 25 16 25 16 25 17 24 17 24 17 23 18 23 18 22 19 22 19 22 19 21 20 20 20 20 20 20 21 19 21 18 22 18 22 18 23 17 22 17 23 16 24 16 24 15 24 15 25 15 25 14 25 13 26 13 25 13 26 12 26 12 26 11 26 11 26 10 26 10 26 10 27 9 26 8 27 8 26 8 27 7 27 7 27 6 27 6 28 6 27 5 27 4 28 4 28 4 27 3 28 3 28 2 28 2 29 1 28 1 28 1 29 0 29 0 35 -1 34 -2 34 -2 34 -3 33 -4 33 -4 33 -4 32 -5 32 -6 31 -7 32 -7 30 -7 31 -8 30 -9 30 -10 29 -9 29 -11 29 -11 28 -12 28 -12 27 -13 28 -14 27 -14 26 -15 26 -15 26 -16 25 -17 26 -17 24 -17 25 -19 24 -19 23 -19 24 -20 22 -21 23 -21 21 -22 22 -23 20 -23 20 -23 20 -25 19 -24 19 -26 18 -26 18 -26 17 -27 17 -28 16 -28 16 -29 15 -30 14 -30 15 -30 13 -31 13 -32 13 -32 12 -33 12 -34 11 -34 10 -35 10 -35 10 -36 9 -36 8 -37 9 -38 7 -38zm2587 1643l-116 -4290 -1673 29 -18 -579 4016 -68 12 577 -1666 29 108 4288 -663 14z"/>
 </g>
</svg>
